<?xml version="1.0" encoding="UTF-8"?>
<svg xmlns="http://www.w3.org/2000/svg" width="256" height="256" viewBox="0 0 256 256" role="img" aria-label="Audiovox icon">
  <defs>
    <linearGradient id="gi" x1="0" x2="1">
      <stop offset="0%" stop-color="#06b6d4" />
      <stop offset="100%" stop-color="#60a5fa" />
    </linearGradient>
  </defs>

  <rect width="256" height="256" rx="48" fill="#0b1220" />
  <g transform="translate(28,28)">
    <path d="M32 88 C32 56 64 32 96 32 C128 32 160 56 160 88 L160 136 C160 168 128 192 96 192 C64 192 32 168 32 136 Z"
          fill="url(#gi)" opacity="0.98" />
    <path d="M72 96 L120 96" stroke="#07172a" stroke-width="6" stroke-linecap="round" opacity="0.12" />
    <g transform="translate(52,68)">
      <path d="M0 40 C8 8 32 8 40 40 C48 72 64 72 72 40" fill="none" stroke="#fff" stroke-width="6" stroke-linecap="round" stroke-linejoin="round" opacity="0.95" />
    </g>
    <circle cx="96" cy="96" r="18" fill="#07172a" opacity="0.18" />
  </g>
</svg>
